<svg preserveAspectRatio="none" width="100%" height="100%" overflow="visible" style="display: block;" viewBox="0 0 49.1389 49.1389" fill="none" xmlns="http://www.w3.org/2000/svg">
<g id="Group">
<path id="Vector" d="M47.1389 12.0309V37.108C47.1389 39.7684 46.0821 42.3198 44.2009 44.2009C42.3198 46.0821 39.7684 47.1389 37.108 47.1389H12.0309C9.37051 47.1389 6.81912 46.0821 4.93797 44.2009C3.05682 42.3198 2 39.7684 2 37.108V12.0309C2 9.37051 3.05682 6.81912 4.93797 4.93797C6.81912 3.05682 9.37051 2 12.0309 2H37.108C39.7684 2 42.3198 3.05682 44.2009 4.93797C46.0821 6.81912 47.1389 9.37051 47.1389 12.0309Z" stroke="var(--stroke-0, #959595)" stroke-width="4" stroke-linecap="round" stroke-linejoin="round"/>
<path id="Vector_2" d="M12.0309 34.6003V24.5694M12.0309 24.5694V14.5386H17.0463C18.3765 14.5386 19.6522 15.067 20.5927 16.0076C21.5333 16.9481 22.0617 18.2238 22.0617 19.554C22.0617 20.8842 21.5333 22.1599 20.5927 23.1005C19.6522 24.041 18.3765 24.5694 17.0463 24.5694H12.0309ZM37.108 22.0617C36.3407 20.5245 34.7683 19.554 33.0505 19.554H32.0926C31.095 19.554 30.1382 19.9503 29.4328 20.6558C28.7273 21.3612 28.331 22.318 28.331 23.3156C28.331 24.3132 28.7273 25.27 29.4328 25.9754C30.1382 26.6809 31.095 27.0772 32.0926 27.0772H33.3465C34.3441 27.0772 35.3009 27.4735 36.0063 28.1789C36.7117 28.8843 37.108 29.8411 37.108 30.8387C37.108 31.8364 36.7117 32.7931 36.0063 33.4986C35.3009 34.204 34.3441 34.6003 33.3465 34.6003H32.3885C31.546 34.6003 30.7202 34.3657 30.0036 33.9228C29.2869 33.4799 28.7078 32.8461 28.331 32.0926" stroke="var(--stroke-0, #959595)" stroke-width="4" stroke-linecap="round" stroke-linejoin="round"/>
</g>
</svg>
