<svg preserveAspectRatio="none" width="100%" height="100%" overflow="visible" style="display: block;" viewBox="0 0 130 130" fill="none" xmlns="http://www.w3.org/2000/svg">
<g id="Group 3">
<path id="Ellipse 3" d="M130 65C130 100.899 100.899 130 65 130C29.1015 130 0 100.899 0 65C0 29.1015 29.1015 0 65 0C100.899 0 130 29.1015 130 65ZM13 65C13 93.7188 36.2812 117 65 117C93.7188 117 117 93.7188 117 65C117 36.2812 93.7188 13 65 13C36.2812 13 13 36.2812 13 65Z" fill="var(--fill-0, #D9D9D9)" fill-opacity="0.2"/>
<path id="Ellipse 4" d="M130 65C130 100.899 100.899 130 65 130C29.1015 130 0 100.899 0 65C0 29.1015 29.1015 0 65 0C100.899 0 130 29.1015 130 65ZM13 65C13 93.7188 36.2812 117 65 117C93.7188 117 117 93.7188 117 65C117 36.2812 93.7188 13 65 13C36.2812 13 13 36.2812 13 65Z" fill="url(#paint0_linear_2606_374)"/>
<g id="basil:figma-outline">
<path id="Vector" fill-rule="evenodd" clip-rule="evenodd" d="M66.8808 73.4586C68.618 74.852 70.7697 75.6275 72.9964 75.6628C75.2231 75.6981 77.3983 74.9912 79.1788 73.6536C80.9594 72.3159 82.244 70.4237 82.8302 68.2752C83.4163 66.1267 83.2706 63.8442 82.4161 61.7877C81.7016 60.0605 80.5186 58.5675 79.0006 57.4769C80.2955 56.5487 81.3504 55.3252 82.0778 53.9078C82.8053 52.4904 83.1843 50.92 83.1834 49.3268C83.1834 46.6665 82.1266 44.1151 80.2455 42.2339C78.3643 40.3528 75.8129 39.296 73.1526 39.296H56.8524C54.7288 39.2953 52.6597 39.9687 50.9432 41.2192C49.2267 42.4696 47.9514 44.2326 47.3009 46.2541C46.6503 48.2757 46.6582 50.4516 47.3233 52.4684C47.9884 54.4852 49.2765 56.2389 51.0019 57.4769C49.7076 58.4056 48.653 59.6292 47.9256 61.0465C47.1981 62.4638 46.8187 64.0339 46.8187 65.627C46.8187 67.22 47.1981 68.7902 47.9256 70.2075C48.653 71.6247 49.7076 72.8484 51.0019 73.7771C49.6055 74.7791 48.4899 76.1232 47.7623 77.6803C47.0346 79.2375 46.7193 80.9555 46.8466 82.6695C46.9738 84.3836 47.5394 86.0362 48.489 87.4688C49.4386 88.9015 50.7404 90.066 52.2695 90.8509C53.7986 91.6357 55.5038 92.0145 57.2214 91.9508C58.939 91.8872 60.6114 91.3833 62.0782 90.4874C63.5451 89.5916 64.7571 88.3338 65.5981 86.8348C66.439 85.3358 66.8807 83.6459 66.8808 81.9271V73.4586ZM56.8499 43.0575C55.1872 43.0575 53.5926 43.718 52.4169 44.8938C51.2411 46.0695 50.5806 47.6641 50.5806 49.3268C50.5806 50.9895 51.2411 52.5842 52.4169 53.7599C53.5926 54.9356 55.1872 55.5961 56.8499 55.5961H63.1192V43.0575H56.8499ZM63.1192 75.6579H56.8499C55.61 75.6579 54.3979 76.0255 53.3669 76.7144C52.3359 77.4033 51.5324 78.3824 51.0578 79.528C50.5833 80.6736 50.4592 81.9341 50.7011 83.1502C50.943 84.3663 51.5401 85.4834 52.4169 86.3602C53.2936 87.237 54.4107 87.8341 55.6268 88.076C56.843 88.3179 58.1035 88.1937 59.2491 87.7192C60.3946 87.2447 61.3738 86.4412 62.0626 85.4102C62.7515 84.3792 63.1192 83.1671 63.1192 81.9271V75.6579ZM56.8499 59.3577C55.1872 59.3577 53.5926 60.0182 52.4169 61.1939C51.2411 62.3696 50.5806 63.9643 50.5806 65.627C50.5806 67.2897 51.2411 68.8843 52.4169 70.06C53.5926 71.2358 55.1872 71.8963 56.8499 71.8963H63.1192V59.3577H56.8499ZM66.8808 65.627C66.8808 67.29 67.5414 68.885 68.7174 70.0609C69.8933 71.2369 71.4883 71.8975 73.1513 71.8975C74.8144 71.8975 76.4093 71.2369 77.5853 70.0609C78.7612 68.885 79.4219 67.29 79.4219 65.627C79.4219 63.9639 78.7612 62.369 77.5853 61.193C76.4093 60.0171 74.8144 59.3564 73.1513 59.3564C71.4883 59.3564 69.8933 60.0171 68.7174 61.193C67.5414 62.369 66.8808 63.9639 66.8808 65.627ZM73.1501 55.5961C74.8128 55.5961 76.4074 54.9356 77.5831 53.7599C78.7589 52.5842 79.4194 50.9895 79.4194 49.3268C79.4194 47.6641 78.7589 46.0695 77.5831 44.8938C76.4074 43.718 74.8128 43.0575 73.1501 43.0575H66.8808V55.5961H73.1501Z" fill="var(--fill-0, #959595)"/>
</g>
</g>
<defs>
<linearGradient id="paint0_linear_2606_374" x1="3.40116" y1="12.2641" x2="130.606" y2="21.9712" gradientUnits="userSpaceOnUse">
<stop stop-color="#FD6F00"/>
<stop offset="1" stop-color="#E46400"/>
</linearGradient>
</defs>
</svg>
