<svg preserveAspectRatio="none" width="100%" height="100%" overflow="visible" style="display: block;" viewBox="0 0 22 22" fill="none" xmlns="http://www.w3.org/2000/svg">
<g id="Group">
<path id="Vector" d="M21 11C21.0017 12.3172 20.7424 13.6216 20.237 14.8379C19.7316 16.0543 18.9901 17.1584 18.0555 18.0865C17.1285 19.0118 16.0283 19.7454 14.8177 20.2454C13.6071 20.7453 12.3098 21.0017 11 21C5.47701 21 1.00001 16.523 1.00001 11C0.996513 8.43589 1.98144 5.96909 3.75001 4.11251C4.68318 3.12781 5.80747 2.34388 7.05407 1.8087C8.30068 1.27352 9.64338 0.998342 11 1.00001C12.3098 0.998312 13.6071 1.25475 14.8177 1.75466C16.0283 2.25458 17.1285 2.98817 18.0555 3.91351C18.9901 4.84162 19.7316 5.94575 20.237 7.16208C20.7424 8.37842 21.0017 9.68285 21 11Z" stroke="var(--stroke-0, #BABABA)" stroke-width="2" stroke-linecap="round" stroke-linejoin="round"/>
<path id="Vector_2" d="M21 11C19.541 11 15.516 10.45 11.9135 12.0315C8.00001 13.75 5.16651 16.416 3.93151 18.0735" stroke="var(--stroke-0, #BABABA)" stroke-width="2" stroke-linecap="round" stroke-linejoin="round"/>
<path id="Vector_3" d="M7.25001 1.72701C8.81501 3.17151 12.23 6.84901 13.5 10.5C14.77 14.151 15.24 18.64 15.53 19.9175" stroke="var(--stroke-0, #BABABA)" stroke-width="2" stroke-linecap="round" stroke-linejoin="round"/>
<path id="Vector_4" d="M1.07701 9.75001C2.96601 9.86401 7.96651 9.96651 11.1665 8.60001C14.3665 7.23351 17.12 4.72001 18.0645 3.92251M1.75001 14.8065C2.63117 16.9395 4.22036 18.7036 6.25001 19.802" stroke="var(--stroke-0, #BABABA)" stroke-width="2" stroke-linecap="round" stroke-linejoin="round"/>
<path id="Vector_5" d="M1.00001 11C0.996513 8.43589 1.98144 5.96909 3.75001 4.11251C4.68318 3.12781 5.80747 2.34388 7.05407 1.8087C8.30068 1.27352 9.64338 0.998343 11 1.00001M15 1.83201C16.1388 2.33028 17.175 3.03613 18.0555 3.91351C18.9901 4.84162 19.7316 5.94575 20.237 7.16208C20.7424 8.37842 21.0017 9.68285 21 11C21 12.231 20.7775 13.4105 20.37 14.5M11 21C12.3098 21.0017 13.6071 20.7453 14.8177 20.2454C16.0283 19.7454 17.1285 19.0118 18.0555 18.0865" stroke="var(--stroke-0, #BABABA)" stroke-width="2" stroke-linecap="round" stroke-linejoin="round"/>
</g>
</svg>
