<svg preserveAspectRatio="none" width="100%" height="100%" overflow="visible" style="display: block;" viewBox="0 0 49.1389 49.1389" fill="none" xmlns="http://www.w3.org/2000/svg">
<g id="Group">
<path id="Vector" d="M34.6003 24.5694V34.6003M34.6003 17.0463V17.0714M47.1389 12.0309V37.108C47.1389 39.7684 46.0821 42.3198 44.2009 44.2009C42.3198 46.0821 39.7684 47.1389 37.108 47.1389H12.0309C9.37051 47.1389 6.81912 46.0821 4.93797 44.2009C3.05682 42.3198 2 39.7684 2 37.108V12.0309C2 9.37051 3.05682 6.81912 4.93797 4.93797C6.81912 3.05682 9.37051 2 12.0309 2H37.108C39.7684 2 42.3198 3.05682 44.2009 4.93797C46.0821 6.81912 47.1389 9.37051 47.1389 12.0309Z" stroke="var(--stroke-0, #959595)" stroke-width="4" stroke-linecap="round" stroke-linejoin="round"/>
<path id="Vector_2" d="M12.0309 34.6003L14.852 27.0772M14.852 27.0772L19.554 14.5386L24.256 27.0772M14.852 27.0772H24.256M27.0772 34.6003L24.256 27.0772" stroke="var(--stroke-0, #959595)" stroke-width="4" stroke-linecap="round" stroke-linejoin="round"/>
</g>
</svg>
