<svg preserveAspectRatio="none" width="100%" height="100%" overflow="visible" style="display: block;" viewBox="0 0 49.1389 49.1389" fill="none" xmlns="http://www.w3.org/2000/svg">
<g id="Group">
<path id="Vector" d="M12.0309 14.5386L22.0617 34.6003M12.0309 34.6003L22.0617 14.5386M47.1389 12.0309V37.108C47.1389 39.7684 46.0821 42.3198 44.2009 44.2009C42.3198 46.0821 39.7684 47.1389 37.108 47.1389H12.0309C9.37051 47.1389 6.81912 46.0821 4.93797 44.2009C3.05682 42.3198 2 39.7684 2 37.108V12.0309C2 9.37051 3.05682 6.81912 4.93797 4.93797C6.81912 3.05682 9.37051 2 12.0309 2H37.108C39.7684 2 42.3198 3.05682 44.2009 4.93797C46.0821 6.81912 47.1389 9.37051 47.1389 12.0309Z" stroke="var(--stroke-0, #959595)" stroke-width="4" stroke-linecap="round" stroke-linejoin="round"/>
<path id="Vector_2" d="M37.108 24.5694V33.0957C37.108 33.2933 37.0691 33.4889 36.9935 33.6715C36.9179 33.854 36.8071 34.0199 36.6673 34.1596C36.5276 34.2993 36.3617 34.4102 36.1792 34.4858C35.9966 34.5614 35.801 34.6003 35.6034 34.6003H32.0926C30.7624 34.6003 29.4867 34.0719 28.5462 33.1313C27.6056 32.1907 27.0772 30.9151 27.0772 29.5849C27.0772 28.2547 27.6056 26.979 28.5462 26.0384C29.4867 25.0979 30.7624 24.5694 32.0926 24.5694H37.108ZM37.108 24.5694V17.0463" stroke="var(--stroke-0, #959595)" stroke-width="4" stroke-linecap="round" stroke-linejoin="round"/>
</g>
</svg>
